<svg width="32" height="25" viewBox="0 0 32 25" fill="none" xmlns="http://www.w3.org/2000/svg">
<path d="M15.5757 6.48566L5.33375 14.9604V24.107C5.33375 24.3439 5.4274 24.571 5.59408 24.7385C5.76077 24.9059 5.98685 25 6.22257 25L12.4477 24.9838C12.6826 24.9826 12.9075 24.888 13.0733 24.7207C13.239 24.5534 13.332 24.3269 13.332 24.0909V18.7493C13.332 18.5125 13.4257 18.2853 13.5924 18.1179C13.759 17.9504 13.9851 17.8563 14.2208 17.8563H17.7761C18.0119 17.8563 18.2379 17.9504 18.4046 18.1179C18.5713 18.2853 18.6649 18.5125 18.6649 18.7493V24.087C18.6646 24.2045 18.6873 24.3209 18.7318 24.4295C18.7763 24.5382 18.8417 24.637 18.9243 24.7202C19.0069 24.8034 19.105 24.8694 19.213 24.9145C19.321 24.9595 19.4368 24.9827 19.5538 24.9827L25.7766 25C26.0124 25 26.2384 24.9059 26.4051 24.7385C26.5718 24.571 26.6654 24.3439 26.6654 24.107V14.9542L16.4257 6.48566C16.3053 6.38817 16.1553 6.33501 16.0007 6.33501C15.8461 6.33501 15.6961 6.38817 15.5757 6.48566ZM31.7539 12.2458L27.1099 8.39993V0.669718C27.1099 0.492097 27.0396 0.321752 26.9146 0.196156C26.7896 0.0705594 26.62 0 26.4432 0H23.3324C23.1556 0 22.986 0.0705594 22.861 0.196156C22.736 0.321752 22.6658 0.492097 22.6658 0.669718V4.72207L17.6922 0.611117C17.215 0.21653 16.616 0.000788785 15.9979 0.000788785C15.3798 0.000788785 14.7809 0.21653 14.3036 0.611117L0.241925 12.2458C0.174423 12.3018 0.118576 12.3707 0.0775751 12.4484C0.0365738 12.5262 0.0112218 12.6113 0.00296763 12.6989C-0.00528651 12.7865 0.00371897 12.8748 0.0294695 12.9589C0.0552201 13.043 0.097211 13.1212 0.153043 13.189L1.5696 14.9191C1.62528 14.9871 1.69377 15.0434 1.77114 15.0848C1.84851 15.1262 1.93325 15.1519 2.02051 15.1603C2.10776 15.1688 2.19582 15.1598 2.27963 15.1341C2.36345 15.1083 2.44139 15.0661 2.50897 15.01L15.5757 4.19746C15.6961 4.09997 15.8461 4.04681 16.0007 4.04681C16.1553 4.04681 16.3053 4.09997 16.4257 4.19746L29.493 15.01C29.5605 15.0661 29.6383 15.1083 29.722 15.1342C29.8057 15.1601 29.8936 15.1691 29.9808 15.1608C30.068 15.1525 30.1527 15.1271 30.2301 15.0859C30.3075 15.0447 30.376 14.9886 30.4318 14.9207L31.8484 13.1906C31.9042 13.1225 31.946 13.0439 31.9714 12.9594C31.9969 12.875 32.0054 12.7863 31.9967 12.6985C31.9879 12.6107 31.9619 12.5255 31.9203 12.4478C31.8786 12.3701 31.8221 12.3015 31.7539 12.2458Z" fill="black"/>
</svg>
