<svg width="25" height="25" viewBox="0 0 25 25" fill="none" xmlns="http://www.w3.org/2000/svg">
<path fill-rule="evenodd" clip-rule="evenodd" d="M5.72045 6.04707C5.72045 5.09317 6.98244 4.54004 7.88763 4.9128C8.92459 5.59805 17.7426 10.6001 18.5402 11.2679C19.3377 11.9356 19.5665 12.9959 18.486 13.7845C17.4056 14.573 8.81822 19.6637 7.88763 20.1058C6.95685 20.5478 5.75924 19.9464 5.72045 18.8276C5.68167 17.7089 5.72045 7.00088 5.72045 6.04707ZM7.02326 6.8752C7.02326 7.11875 7.01589 17.8959 7.00232 18.1176C6.98002 18.4812 7.29319 18.8465 7.7295 18.6298C8.1658 18.413 17.1849 12.9946 17.5431 12.8543C17.9013 12.7139 17.8776 12.3563 17.5431 12.1328C17.2087 11.9094 8.02512 6.61719 7.75655 6.38477C7.48798 6.15225 7.02326 6.50118 7.02326 6.8752Z" fill="black"/>
</svg>
