<svg width="30" height="18" viewBox="0 0 30 18" fill="none" xmlns="http://www.w3.org/2000/svg">
<path fill-rule="evenodd" clip-rule="evenodd" d="M2.51452 17.8393C-0.117078 17.8393 -0.533999 16.2217 0.574822 15.2613C1.68383 14.3009 11.8695 6.36905 13.2292 5.5276C14.5891 4.68615 15.6565 4.51934 16.9921 5.51164C18.3277 6.50412 28.3961 13.9113 29.4608 15.1628C30.5258 16.4143 30.0838 17.8612 27.5001 17.8612C24.9162 17.8612 5.1463 17.8393 2.51452 17.8393ZM15.8352 8.32729C15.509 8.07866 14.9795 8.07551 14.6499 8.32173L6.47536 14.4314C6.14695 14.6769 6.21467 14.8759 6.62231 14.8759L23.6936 14.8767C24.1031 14.8767 24.1701 14.6748 23.8447 14.4269L15.8352 8.32729ZM1.20345 0.00259972C0.732536 -0.0289421 0.314316 0.228966 0.314316 0.642733L0.314316 2.16291C0.314316 2.84108 0.440858 2.81603 1.03034 2.81603C1.61963 2.81603 28.33 2.74293 28.8362 2.73068C29.3426 2.7188 29.6626 2.534 29.6626 2.13341C29.6626 1.73281 29.6626 0.973377 29.6615 0.587812C29.6602 0.202063 29.3095 0.0148449 28.9132 0.0148449C28.5169 0.0148449 1.67455 0.0341434 1.20345 0.00259972Z" fill="white"/>
</svg>
