<svg width="25" height="23" viewBox="0 0 25 23" fill="none" xmlns="http://www.w3.org/2000/svg">
<path d="M25 20.125C25 20.9156 24.7667 21.5927 24.3 22.1562C23.8333 22.7197 23.273 23.001 22.619 23H10.7143C10.0595 23 9.49881 22.7182 9.03214 22.1547C8.56548 21.5912 8.33254 20.9147 8.33333 20.125V18.6875H5.95238C4.30556 18.6875 2.90159 17.9865 1.74048 16.5844C0.579366 15.1824 -0.000792838 13.4876 8.13167e-07 11.5C8.13167e-07 9.51146 0.580556 7.81617 1.74167 6.41413C2.90278 5.01208 4.30635 4.31154 5.95238 4.3125H8.33333V2.875C8.33333 2.08438 8.56667 1.40731 9.03333 0.843815C9.5 0.280315 10.0603 -0.000955582 10.7143 3.8147e-06H22.619C23.2738 3.8147e-06 23.8345 0.281752 24.3012 0.845251C24.7679 1.40875 25.0008 2.08534 25 2.875V20.125ZM19.0476 11.5C19.0476 10.7094 18.8143 10.0323 18.3476 9.46881C17.881 8.90531 17.3206 8.62404 16.6667 8.625C16.0119 8.625 15.4512 8.90675 14.9845 9.47025C14.5179 10.0338 14.2849 10.7103 14.2857 11.5C14.2857 12.2906 14.519 12.9677 14.9857 13.5312C15.4524 14.0947 16.0127 14.376 16.6667 14.375C17.3214 14.375 17.8821 14.0932 18.3488 13.5297C18.8155 12.9662 19.0484 12.2897 19.0476 11.5ZM8.33333 15.8125V7.1875H5.95238C4.96032 7.1875 4.11706 7.60677 3.42262 8.44531C2.72818 9.28385 2.38095 10.3021 2.38095 11.5C2.38095 12.6979 2.72818 13.7161 3.42262 14.5547C4.11706 15.3932 4.96032 15.8125 5.95238 15.8125H8.33333Z" fill="white"/>
</svg>
