<svg width="30" height="20" viewBox="0 0 30 20" fill="none" xmlns="http://www.w3.org/2000/svg">
<path fill-rule="evenodd" clip-rule="evenodd" d="M28.7102 12.0442C31.5321 14.8132 29.3817 19.2137 25.5599 19.156C21.7378 19.0982 8.03624 19.0985 4.27027 19.0985C0.504288 19.0985 -1.47582 14.6387 1.30437 11.8319C4.08481 9.02565 10.767 2.75219 12.4207 1.24853C14.0745 -0.254646 15.8918 -0.570244 17.6784 1.24853C18.8407 2.43172 21.965 5.47218 24.7837 8.21509C26.298 9.68877 27.7242 11.0764 28.7102 12.0442ZM24.965 15.0615C25.5053 15.0644 25.6308 14.7578 25.2482 14.3772L15.6316 4.8037C15.4476 4.62048 15.199 4.517 14.9394 4.51563C14.6797 4.51426 14.43 4.61512 14.2441 4.79639L4.59196 14.2702C4.20983 14.6455 4.33412 14.9545 4.8727 14.9574L24.965 15.0615Z" fill="white"/>
</svg>
