<svg width="25" height="25" viewBox="0 0 25 25" fill="none" xmlns="http://www.w3.org/2000/svg">
<path d="M12.5 25C14.2246 25 15.6235 23.6011 15.6235 21.875H9.37647C9.37647 23.6011 10.7754 25 12.5 25ZM23.0171 17.6899C22.0737 16.6763 20.3086 15.1514 20.3086 10.1562C20.3086 6.3623 17.6484 3.3252 14.0615 2.58008V1.5625C14.0615 0.699707 13.3623 0 12.5 0C11.6377 0 10.9385 0.699707 10.9385 1.5625V2.58008C7.35157 3.3252 4.69141 6.3623 4.69141 10.1562C4.69141 15.1514 2.92627 16.6763 1.98291 17.6899C1.68994 18.0049 1.56006 18.3813 1.5625 18.75C1.56787 19.5508 2.19629 20.3125 3.12989 20.3125H21.8701C22.8037 20.3125 23.4326 19.5508 23.4375 18.75C23.4399 18.3813 23.3101 18.0044 23.0171 17.6899Z" fill="black"/>
</svg>
