<svg width="30" height="36" viewBox="0 0 30 36" fill="none" xmlns="http://www.w3.org/2000/svg">
<path fill-rule="evenodd" clip-rule="evenodd" d="M15 24.3623L13.1782 25.5804C10.1227 27.6237 7.01253 27.6647 5.45628 24.1526L4.69069 22.4204C3.07081 18.5887 4.85733 15.7295 7.91394 13.6856L11.554 11.2518L12.4227 13.3066C12.4792 13.4402 10.9876 14.2663 9.19468 15.4651L8.78265 15.7406C6.63109 17.1792 5.34109 18.3604 6.53581 21.1867L7.18128 22.7505C8.67073 26.2796 11.3682 24.1528 12.3089 23.5239L12.7209 23.2483L15 21.7245L15 10.126C15 9.50499 15.4203 9 15.9387 9H25.8973C26.4164 9 26.836 9.50414 26.836 10.126V25.874C26.836 26.495 26.4157 27 25.8973 27H15.9387C15.4196 27 15 26.4959 15 25.874V24.3623ZM17.3808 11.25C17.1014 11.25 16.875 11.4675 16.875 11.7366V24.2634C16.875 24.5322 17.1019 24.75 17.3808 24.75H24.4552C24.7346 24.75 24.961 24.5325 24.961 24.2634V11.7366C24.961 11.4678 24.7341 11.25 24.4552 11.25L17.3808 11.25Z" fill="white"/>
</svg>
