<svg width="25" height="25" viewBox="0 0 25 25" fill="none" xmlns="http://www.w3.org/2000/svg">
<g clip-path="url(#clip0_0_121)">
<path d="M24.6582 20.6162L19.79 15.748C19.5703 15.5283 19.2725 15.4062 18.96 15.4062H18.1641C19.5117 13.6826 20.3125 11.5146 20.3125 9.15625C20.3125 3.5459 15.7666 -1 10.1562 -1C4.5459 -1 0 3.5459 0 9.15625C0 14.7666 4.5459 19.3125 10.1562 19.3125C12.5146 19.3125 14.6826 18.5117 16.4062 17.1641V17.96C16.4062 18.2725 16.5283 18.5703 16.748 18.79L21.6162 23.6582C22.0752 24.1172 22.8174 24.1172 23.2715 23.6582L24.6533 22.2764C25.1123 21.8174 25.1123 21.0752 24.6582 20.6162ZM10.1562 15.4062C6.7041 15.4062 3.90625 12.6133 3.90625 9.15625C3.90625 5.7041 6.69922 2.90625 10.1562 2.90625C13.6084 2.90625 16.4062 5.69922 16.4062 9.15625C16.4062 12.6084 13.6133 15.4062 10.1562 15.4062Z" fill="black"/>
</g>
<defs>
<clipPath id="clip0_0_121">
<rect width="25" height="25" fill="white"/>
</clipPath>
</defs>
</svg>
