<svg width="30" height="18" viewBox="0 0 30 18" fill="none" xmlns="http://www.w3.org/2000/svg">
<path fill-rule="evenodd" clip-rule="evenodd" d="M2.51446 0.0218945C5.14624 0.0218945 24.9161 -1.90735e-06 27.5 -1.90735e-06C30.0838 -1.90735e-06 30.5257 1.44688 29.4609 2.69839C28.3959 3.94989 18.3276 11.3571 16.992 12.3496C15.6565 13.3419 14.589 13.175 13.2292 12.3336C11.8695 11.4921 1.68377 3.56025 0.574953 2.59986C-0.534053 1.63948 -0.117131 0.0218945 2.51446 0.0218945ZM15.8352 9.5339L23.8446 3.43426C24.1701 3.18637 24.1031 2.9845 23.6936 2.9845L6.62226 2.98543C6.21462 2.98543 6.14689 3.18452 6.47531 3.43L14.6499 9.53928C14.9794 9.78568 15.509 9.78234 15.8352 9.5339ZM1.2034 17.8586C0.732482 17.8901 0.314262 17.6322 0.314262 17.2185L0.314262 15.6983C0.314262 15.0201 0.440804 15.0452 1.03028 15.0452C1.61958 15.0452 28.33 15.1183 28.8362 15.1305C29.3425 15.1424 29.6626 15.3272 29.6626 15.7278C29.6626 16.1284 29.6626 16.8878 29.6615 17.2734C29.6602 17.6591 29.3095 17.8463 28.9132 17.8463C28.5168 17.8463 1.6745 17.827 1.2034 17.8586Z" fill="white"/>
</svg>
