<svg width="25" height="25" viewBox="0 0 25 25" fill="none" xmlns="http://www.w3.org/2000/svg">
<path d="M2.34375 12.5C2.34375 12.7072 2.42606 12.9059 2.57257 13.0524C2.71909 13.1989 2.9178 13.2812 3.125 13.2812H14.8542C14.1914 14.0625 13.8202 15.0494 13.8036 16.0737C13.7871 17.098 14.1264 18.0964 14.7635 18.8986C15.4007 19.7008 16.2964 20.2572 17.2979 20.4729C18.2994 20.6887 19.3447 20.5504 20.2557 20.0817C21.1666 19.6129 21.8868 18.8428 22.2935 17.9025C22.7002 16.9622 22.7681 15.91 22.4858 14.9252C22.2035 13.9404 21.5884 13.0839 20.7453 12.5019C19.9023 11.9199 18.8834 11.6482 17.8625 11.7333C17.8117 11.7234 17.7601 11.7186 17.7083 11.7187L8.07292 11.7187V6.24999C8.07292 5.49026 7.77111 4.76164 7.2339 4.22443C6.69669 3.68721 5.96807 3.38541 5.20833 3.38541C4.4486 3.38541 3.71998 3.68721 3.18277 4.22443C2.64555 4.76164 2.34375 5.49026 2.34375 6.24999L2.34375 12.5Z" fill="white"/>
</svg>
